<?xml version="1.0" encoding="UTF-8" standalone="no"?>
<!-- Created with Inkscape (http://www.inkscape.org/) -->

<svg
   xmlns:dc="http://purl.org/dc/elements/1.1/"
   xmlns:cc="http://creativecommons.org/ns#"
   xmlns:rdf="http://www.w3.org/1999/02/22-rdf-syntax-ns#"
   xmlns:svg="http://www.w3.org/2000/svg"
   xmlns="http://www.w3.org/2000/svg"
   xmlns:sodipodi="http://sodipodi.sourceforge.net/DTD/sodipodi-0.dtd"
   xmlns:inkscape="http://www.inkscape.org/namespaces/inkscape"
   width="128"
   height="64"
   viewBox="0 0 128 64"
   version="1.1"
   id="svg8"
   inkscape:version="0.92.3 (2405546, 2018-03-11)"
   sodipodi:docname="cloud.svg">
  <defs
     id="defs2" />
  <sodipodi:namedview
     id="base"
     pagecolor="#ffffff"
     bordercolor="#666666"
     borderopacity="1.0"
     inkscape:pageopacity="0.0"
     inkscape:pageshadow="2"
     inkscape:zoom="2"
     inkscape:cx="18.960042"
     inkscape:cy="62.277765"
     inkscape:document-units="px"
     inkscape:current-layer="layer1"
     showgrid="false"
     units="px"
     inkscape:window-width="1920"
     inkscape:window-height="1017"
     inkscape:window-x="-8"
     inkscape:window-y="-8"
     inkscape:window-maximized="1"
     inkscape:snap-bbox="true"
     inkscape:bbox-paths="true"
     inkscape:bbox-nodes="true"
     inkscape:snap-bbox-edge-midpoints="true"
     inkscape:snap-bbox-midpoints="true"
     inkscape:object-paths="true"
     inkscape:snap-smooth-nodes="true"
     inkscape:snap-page="true"
     inkscape:snap-object-midpoints="true"
     inkscape:snap-center="true"
     showguides="true"
     inkscape:guide-bbox="true">
    <inkscape:grid
       type="xygrid"
       id="grid1480"
       empspacing="4" />
  </sodipodi:namedview>
  <metadata
     id="metadata5">
    <rdf:RDF>
      <cc:Work
         rdf:about="">
        <dc:format>image/svg+xml</dc:format>
        <dc:type
           rdf:resource="http://purl.org/dc/dcmitype/StillImage" />
        <dc:title />
      </cc:Work>
    </rdf:RDF>
  </metadata>
  <g
     inkscape:label="Layer 1"
     inkscape:groupmode="layer"
     id="layer1"
     transform="translate(0,-1292)">
    <circle
       style="opacity:1;fill:#000000;fill-opacity:1;stroke:none;stroke-width:2;stroke-linecap:round;stroke-linejoin:round;stroke-miterlimit:4;stroke-dasharray:none;stroke-dashoffset:0;stroke-opacity:1;paint-order:stroke fill markers"
       id="path816"
       cx="55"
       cy="1355"
       r="1"
       transform="translate(0,1292)" />
    <path
       style="opacity:1;fill:#bfbfbf;fill-opacity:1;stroke:none;stroke-width:2;stroke-linecap:round;stroke-linejoin:round;stroke-miterlimit:4;stroke-dasharray:none;stroke-dashoffset:0;stroke-opacity:1;paint-order:stroke fill markers"
       d="m 64,1372 c -11.558556,0.01 -22.214779,6.2475 -27.876953,16.3242 -8.656006,1.4277 -15.843273,7.4647 -18.744141,15.7442 -0.458437,-0.043 -0.918501,-0.066 -1.378906,-0.068 -8.836556,0 -16,7.1634 -16,16 0,8.8366 7.163444,16 16,16 h 24 8 c 4.418278,0 8,-3.5817 8,-8 v -24 h -8 l 16,-16 16,16 h -8 v 24 c 0,4.4183 3.581722,8 8,8 h 8 24 c 8.83656,0 16,-7.1634 16,-16 0,-8.8366 -7.16344,-16 -16,-16 -0.4604,0 -0.92047,0.025 -1.37891,0.068 -2.90472,-8.2871 -10.10354,-14.3266 -18.769528,-15.7461 C 86.193354,1378.2538 75.549071,1372.0162 64,1372 Z"
       id="path815"
       inkscape:connector-curvature="0"
       sodipodi:nodetypes="ccccsscsscccccsscsssccc" />
    <path
       style="opacity:1;fill:#bfbfbf;fill-opacity:1;stroke:none;stroke-width:2;stroke-linecap:round;stroke-linejoin:round;stroke-miterlimit:4;stroke-dasharray:none;stroke-dashoffset:0;stroke-opacity:1;paint-order:stroke fill markers"
       d="m 64,1292 c -11.55856,0.01 -22.214784,6.2475 -27.876953,16.3242 -8.655992,1.4278 -15.843255,7.4647 -18.744141,15.7442 -0.458438,-0.043 -0.918501,-0.066 -1.378906,-0.068 -8.836556,0 -16,7.1634 -16,16 0,8.8366 7.163444,16 16,16 10.666667,0 21.333333,0 32,0 4.418278,0 8,-3.5817 8,-8 v -24 h -8 l 16,-16 16,16 h -8 v 24 c 0,4.4183 3.581722,8 8,8 10.666667,0 21.33333,0 32,0 8.83656,0 16,-7.1634 16,-16 0,-8.8366 -7.16344,-16 -16,-16 -0.45978,0 -0.91919,0.027 -1.37695,0.07 -2.90821,-8.2777 -10.10164,-14.3088 -18.759769,-15.7285 C 86.208059,1298.2626 75.557347,1292.0159 64,1292 Z m 0,2 c 11.191985,0.01 21.45057,6.2397 26.609375,16.1719 8.917226,1.0665 16.290985,7.446 18.628905,16.1172 0.90872,-0.1877 1.83384,-0.2845 2.76172,-0.2891 7.73199,0 14,6.268 14,14 0,7.732 -6.26801,14 -14,14 -10.66667,0 -21.333333,0 -32,0 -3.313708,0 -6,-2.6863 -6,-6 v -22 h 11 l -21,-21 -21,21 h 11 v 22 c 0,3.3137 -2.686292,6 -6,6 -10.666667,0 -21.333333,0 -32,0 -7.7319865,0 -14,-6.268 -14,-14 0,-7.732 6.2680135,-14 14,-14 0.934732,0 1.867119,0.093 2.783203,0.2793 2.343077,-8.6599 9.709738,-15.0296 18.617188,-16.0977 C 42.554915,1300.2488 52.809394,1294.0106 64,1294 Z"
       id="path817"
       inkscape:connector-curvature="0"
       sodipodi:nodetypes="ccccsccscccccsccsccccccccsccscccccsccscccc" />
  </g>
</svg>
